# xmcd
#
# Track frame offsets: 
#        300
#        21276
#        40532
#        60679
#        79726
#        102505
#        130569
#        149728
#        165545
#        190573
#        205784
#        230395
#        248816
#
# Disc length: 3655 seconds
#
# Revision: 0
# Processed by: cddbd v1.5.2PL0 Copyright (c) Steve Scherf et al.
# Submitted via: ExactAudioCopy v1.0b1
#
DISCID=a90e430d
DTITLE=Bernard Allison - Chills and Thrills
DYEAR=2007
DGENRE=Modern Electric Blues
TTITLE0=Chills and Thrills
TTITLE1=Boogie Man
TTITLE2=So Devine
TTITLE3=When Im gone
TTITLE4=Missing Tyrone
TTITLE5=Just my guitar and me
TTITLE6=Compromising for your needs
TTITLE7=Black and White
TTITLE8=Serious
TTITLE9=Heart of Saint Paul
TTITLE10=Thats why Im crying
TTITLE11=Groove with me
TTITLE12=Serious (after hours)
EXTD=
EXTT0=
EXTT1=
EXTT2=
EXTT3=
EXTT4=
EXTT5=
EXTT6=
EXTT7=
EXTT8=
EXTT9=
EXTT10=
EXTT11=
EXTT12=
PLAYORDER=
